#N canvas -18 -18 1924 1020 12;
#X obj 32 97 inlet;
#X obj 122 331 clip~ 0 20000;
#X obj 273 156 loadbang;
#X obj 273 185 f \$1;
#X obj 122 460 osc~;
#X text 196 95 <-freq;
#X obj 494 445 clip~ 0 1;
#X obj 122 745 outlet~;
#X obj 244 306 outlet;
#X obj 122 218 expr $f1*pow($f2 \, $f3);
#X obj 673 586 outlet;
#X text 313 186 <-component index;
#X obj 122 666 *~;
#X text 213 552 <- Envelope Gate;
#X msg 147 425 0.75;
#N canvas -11 -11 1920 970 amp 0;
#X obj 31 289 log 2;
#X obj 31 347 expr cos($f1);
#X obj 31 376 expr 0.5-(0.5*$f1);
#X obj 31 136 inlet;
#X obj 31 405 outlet;
#X text 82 405 <-amplitude;
#X text 74 136 <-frequency;
#X obj 31 193 /;
#X obj 31 318 expr $f1*(2*acos(-1)/max($f2 \, 1));
#X text 28 34 This subpatch calculates the amplitude of a sinusoidal
component based on the equation defined in Deutsch et al.: The perceived
height of octave-related complexes. Journal of the Acoustical Society
of America \, VoL 80 \, No. 5 \, November 1986;
#X obj 49 165 r SE_fmin;
#X obj 63 261 r SE_ratio;
#X obj 259 290 r SE_compnum;
#X obj 31 222 expr if($f1 == 0 \, 1 \, $f1);
#X text 222 222 <-send 1 to log2 (-> 0) if freq out of bounds;
#X connect 0 0 8 0;
#X connect 1 0 2 0;
#X connect 2 0 4 0;
#X connect 3 0 7 0;
#X connect 7 0 13 0;
#X connect 8 0 1 0;
#X connect 10 0 7 1;
#X connect 11 0 0 1;
#X connect 12 0 8 1;
#X connect 13 0 0 0;
#X restore 494 356 pd amp;
#X obj 673 556 rmstodb;
#X text 183 422 <-reset phase if previous state is off;
#X obj 494 395 expr $f1/max($f2 \, 1);
#X text 724 357 <-divide by the number of components;
#X obj 140 581 i;
#X obj 140 610 clip 0 1;
#X text 295 305 <-freq display;
#X text 723 587 <-amplitude display;
#X text 120 29 This abstraction generates a sinusoidal component based
on the spectral peak \, number of components \, and ratio.;
#X obj 122 95 r SE_freq;
#X obj 631 356 r SE_compnum;
#X obj 147 391 r SE_phase_reset;
#X obj 140 552 r SE_gate;
#X text 646 397 <-using max() to avoid "expr divide by zero detected"
;
#X obj 197 127 r SE_compratio;
#X obj 615 278 r SE_fmin;
#X obj 736 278 r SE_fmax;
#X text 754 316 <-freq range;
#X obj 494 317 expr if($f1<$f2 || $f1>$f3 \, 0 \, $f1);
#X obj 140 639 lop~ 100;
#X obj 494 484 lop~ 100;
#X obj 122 514 *~;
#X text 25 795 Eito Murakami - SEratio_voice (07/23/21);
#X connect 1 0 4 0;
#X connect 2 0 3 0;
#X connect 3 0 9 2;
#X connect 4 0 37 0;
#X connect 6 0 36 0;
#X connect 9 0 1 0;
#X connect 9 0 8 0;
#X connect 9 0 34 0;
#X connect 12 0 7 0;
#X connect 14 0 4 1;
#X connect 15 0 16 0;
#X connect 15 0 18 0;
#X connect 16 0 10 0;
#X connect 18 0 6 0;
#X connect 20 0 21 0;
#X connect 21 0 35 0;
#X connect 25 0 9 0;
#X connect 26 0 18 1;
#X connect 27 0 14 0;
#X connect 28 0 20 0;
#X connect 30 0 9 1;
#X connect 31 0 34 1;
#X connect 32 0 34 2;
#X connect 34 0 15 0;
#X connect 35 0 12 1;
#X connect 36 0 37 1;
#X connect 37 0 12 0;
